<?xml version="1.0" standalone="no"?>
<!DOCTYPE svg PUBLIC "-//W3C//DTD SVG 20010904//EN"
 "http://www.w3.org/TR/2001/REC-SVG-20010904/DTD/svg10.dtd">
<svg version="1.0" xmlns="http://www.w3.org/2000/svg"
 width="272.000000pt" height="272.000000pt" viewBox="0 0 272.000000 272.000000"
 preserveAspectRatio="xMidYMid meet">
<metadata>
Created by potrace 1.11, written by Peter Selinger 2001-2013
</metadata>
<g transform="translate(0.000000,272.000000) scale(0.100000,-0.100000)"
fill="#000000" stroke="none">
<path d="M1135 2684 c-310 -47 -563 -201 -724 -437 -48 -70 -105 -200 -127
-287 -28 -115 -23 -373 12 -655 26 -206 29 -252 34 -710 l5 -490 710 0 710 0
3 167 2 168 223 2 222 3 3 272 2 273 200 0 c110 0 200 4 200 8 0 4 -45 100
-101 212 -263 533 -265 538 -278 635 -51 401 -354 724 -766 820 -69 16 -272
28 -330 19z m358 -149 c98 -28 185 -69 267 -125 66 -46 185 -166 230 -233 70
-106 130 -281 130 -383 0 -47 15 -83 154 -366 l153 -313 -146 -2 c-80 -2 -156
-5 -168 -8 l-23 -5 0 -270 0 -270 -222 -2 -223 -3 -3 -173 -2 -172 -593 2
-592 3 -6 425 c-5 309 -11 458 -23 545 -43 311 -56 574 -35 707 35 226 192
434 429 570 62 35 208 86 283 97 107 17 290 6 390 -24z"/>
<path d="M970 2195 l0 -94 -122 -3 -123 -3 -5 -120 -5 -120 -92 -3 -93 -3 0
-54 0 -55 95 0 95 0 0 -145 0 -145 -95 0 -95 0 0 -55 0 -55 95 0 94 0 3 -122
3 -123 122 -3 122 -3 3 -92 3 -92 53 -3 52 -3 0 95 0 96 145 0 145 0 0 -95 0
-95 55 0 54 0 3 93 3 92 120 5 120 5 3 123 3 122 94 0 95 0 0 55 0 55 -95 0
-95 0 0 145 0 145 95 0 95 0 0 55 0 55 -95 0 -95 0 0 125 0 124 -122 3 -123 3
-3 93 -3 92 -54 0 -55 0 0 -95 0 -96 -142 3 -143 3 -3 93 -3 92 -54 0 -55 0 0
-95z m640 -600 l0 -385 -385 0 -385 0 0 385 0 385 385 0 385 0 0 -385z"/>
<path d="M1000 1595 l0 -225 225 0 225 0 0 225 0 225 -225 0 -225 0 0 -225z
m340 0 l0 -116 -112 3 -113 3 -3 99 c-1 55 0 106 2 113 4 10 33 13 116 13
l110 0 0 -115z"/>
</g>
</svg>
